<?xml version="1.0" encoding="UTF-8"?>
<svg viewBox="0 0 880 600" role="img" aria-labelledby="t09-title t09-desc" xmlns="http://www.w3.org/2000/svg">
<title id="t09-title">Redis 秒杀架构三层设计与分布式锁</title>
<desc id="t09-desc">三层秒杀架构：Redis 预扣库存→MQ 异步→数据库乐观锁。Redisson WatchDog 自动续期机制，Lua 脚本保证原子性。</desc>
<defs>
<style>@import url('https://fonts.googleapis.com/css2?family=Instrument+Serif:ital@0;1&amp;family=Geist:wght@400;500;600&amp;family=Geist+Mono:wght@400;500;600&amp;display=swap');</style>
<marker id="a" markerWidth="8" markerHeight="6" refX="7" refY="3" orient="auto"><polygon points="0 0,8 3,0 6" fill="#4f5d75"/></marker>
<marker id="b" markerWidth="8" markerHeight="6" refX="7" refY="3" orient="auto"><polygon points="0 0,8 3,0 6" fill="#eb6c36"/></marker>
<marker id="d" markerWidth="8" markerHeight="6" refX="7" refY="3" orient="auto"><polygon points="0 0,8 3,0 6" fill="#2e5aa8"/></marker>
</defs>
<rect width="100%" height="100%" fill="#f5f5f5"/>

<rect x="310" y="16" width="260" height="40" rx="4" fill="#f5f5f5" stroke="#2d3142" stroke-width="1"/>
<text x="440" y="36" fill="#2d3142" font-size="12" font-weight="600" font-family="'Geist',sans-serif" text-anchor="middle">三层秒杀架构</text>

<line x1="440" y1="56" x2="440" y2="80" stroke="#4f5d75" stroke-width="1.2" marker-end="url(#a)"/>

<rect x="280" y="80" width="320" height="40" rx="4" fill="rgba(46,90,168,0.08)" stroke="#2e5aa8" stroke-width="1"/>
<text x="440" y="100" fill="#2d3142" font-size="11" font-weight="600" font-family="'Geist',sans-serif" text-anchor="middle">用户请求 → Nginx 负载均衡</text>
<text x="440" y="114" fill="#2e5aa8" font-size="8" font-family="'Geist Mono',monospace" text-anchor="middle">限流 + 防刷</text>

<line x1="440" y1="120" x2="440" y2="144" stroke="#4f5d75" stroke-width="1.2" marker-end="url(#a)"/>

<rect x="280" y="144" width="320" height="56" rx="6" fill="rgba(235,108,54,0.08)" stroke="#eb6c36" stroke-width="1.2"/>
<rect x="288" y="150" width="36" height="12" rx="2" fill="transparent" stroke="rgba(235,108,54,0.5)" stroke-width="0.8"/>
<text x="306" y="159" fill="#eb6c36" font-size="7" font-family="'Geist Mono',monospace" text-anchor="middle" letter-spacing="0.08em">L1</text>
<text x="440" y="172" fill="#2d3142" font-size="12" font-weight="600" font-family="'Geist',sans-serif" text-anchor="middle">Redis 预扣库存</text>
<text x="440" y="188" fill="#eb6c36" font-size="9" font-family="'Geist Mono',monospace" text-anchor="middle">Lua 脚本原子扣减 · 防超卖</text>
<text x="440" y="200" fill="#7a8399" font-size="8" font-family="'Geist Mono',monospace" text-anchor="middle">DECR 原子操作 · 库存预占</text>

<line x1="440" y1="200" x2="440" y2="224" stroke="#4f5d75" stroke-width="1.2" marker-end="url(#a)"/>

<rect x="280" y="224" width="320" height="56" rx="6" fill="rgba(46,90,168,0.08)" stroke="#2e5aa8" stroke-width="1.2"/>
<rect x="288" y="230" width="36" height="12" rx="2" fill="transparent" stroke="rgba(46,90,168,0.5)" stroke-width="0.8"/>
<text x="306" y="239" fill="#2e5aa8" font-size="7" font-family="'Geist Mono',monospace" text-anchor="middle" letter-spacing="0.08em">L2</text>
<text x="440" y="252" fill="#2d3142" font-size="12" font-weight="600" font-family="'Geist',sans-serif" text-anchor="middle">MQ 异步削峰</text>
<text x="440" y="268" fill="#2e5aa8" font-size="9" font-family="'Geist Mono',monospace" text-anchor="middle">RocketMQ 异步处理订单</text>
<text x="440" y="280" fill="#7a8399" font-size="8" font-family="'Geist Mono',monospace" text-anchor="middle">秒杀订单 Topic · 串行消费</text>

<line x1="440" y1="280" x2="440" y2="304" stroke="#4f5d75" stroke-width="1.2" marker-end="url(#a)"/>

<rect x="280" y="304" width="320" height="56" rx="6" fill="rgba(45,49,66,0.03)" stroke="rgba(45,49,66,0.3)" stroke-width="1"/>
<rect x="288" y="310" width="36" height="12" rx="2" fill="transparent" stroke="rgba(45,49,66,0.4)" stroke-width="0.8"/>
<text x="306" y="319" fill="#2d3142" font-size="7" font-family="'Geist Mono',monospace" text-anchor="middle" letter-spacing="0.08em">L3</text>
<text x="440" y="332" fill="#2d3142" font-size="12" font-weight="600" font-family="'Geist',sans-serif" text-anchor="middle">数据库乐观锁</text>
<text x="440" y="348" fill="#4f5d75" font-size="9" font-family="'Geist Mono',monospace" text-anchor="middle">version 字段 CAS 更新</text>
<text x="440" y="360" fill="#7a8399" font-size="8" font-family="'Geist Mono',monospace" text-anchor="middle">最终一致性校验</text>

<line x1="32" y1="376" x2="848" y2="376" stroke="rgba(45,49,66,0.10)" stroke-width="0.8"/>

<rect x="310" y="384" width="260" height="40" rx="4" fill="#f5f5f5" stroke="#2d3142" stroke-width="1"/>
<text x="440" y="404" fill="#2d3142" font-size="11" font-weight="600" font-family="'Geist',sans-serif" text-anchor="middle">Redisson WatchDog 自动续期</text>
<text x="440" y="416" fill="#4f5d75" font-size="8" font-family="'Geist Mono',monospace" text-anchor="middle">分布式锁核心机制</text>

<line x1="440" y1="424" x2="440" y2="444" stroke="#4f5d75" stroke-width="1.2" marker-end="url(#a)"/>

<rect x="48" y="444" width="240" height="52" rx="6" fill="rgba(45,49,66,0.03)" stroke="rgba(45,49,66,0.3)" stroke-width="1"/>
<text x="168" y="464" fill="#2d3142" font-size="10" font-weight="600" font-family="'Geist',sans-serif" text-anchor="middle">锁获取</text>
<text x="168" y="480" fill="#4f5d75" font-size="8" font-family="'Geist Mono',monospace" text-anchor="middle">tryLock · 默认 30s 过期</text>

<path d="M 288,470 H 316" fill="none" stroke="#4f5d75" stroke-width="1.2" marker-end="url(#a)"/>

<rect x="316" y="444" width="248" height="52" rx="6" fill="rgba(235,108,54,0.08)" stroke="#eb6c36" stroke-width="1.2"/>
<text x="440" y="464" fill="#2d3142" font-size="10" font-weight="600" font-family="'Geist',sans-serif" text-anchor="middle">WatchDog 定时续期</text>
<text x="440" y="480" fill="#eb6c36" font-size="8" font-family="'Geist Mono',monospace" text-anchor="middle">每 10s 检查 · 续期至 30s</text>

<path d="M 564,470 H 592" fill="none" stroke="#4f5d75" stroke-width="1.2" marker-end="url(#a)"/>

<rect x="592" y="444" width="240" height="52" rx="6" fill="rgba(45,49,66,0.03)" stroke="rgba(45,49,66,0.3)" stroke-width="1"/>
<text x="712" y="464" fill="#2d3142" font-size="10" font-weight="600" font-family="'Geist',sans-serif" text-anchor="middle">锁释放</text>
<text x="712" y="480" fill="#4f5d75" font-size="8" font-family="'Geist Mono',monospace" text-anchor="middle">unlock · Lua 脚本安全删除</text>

<line x1="440" y1="496" x2="440" y2="520" stroke="#4f5d75" stroke-width="1.2" marker-end="url(#a)"/>

<rect x="280" y="520" width="320" height="40" rx="4" fill="#f5f5f5" stroke="#2d3142" stroke-width="1"/>
<text x="440" y="540" fill="#2d3142" font-size="11" font-weight="600" font-family="'Geist',sans-serif" text-anchor="middle">Lua 脚本保证原子性</text>
<text x="440" y="552" fill="#4f5d75" font-size="8" font-family="'Geist Mono',monospace" text-anchor="middle">KEYS[1] 库存键 · ARGV[1] 扣减数量</text>

<line x1="32" y1="576" x2="848" y2="576" stroke="rgba(45,49,66,0.10)" stroke-width="0.8"/>
<text x="32" y="592" fill="#4f5d75" font-size="8" font-family="'Geist Mono',monospace" letter-spacing="0.14em">LEGEND</text>
<line x1="120" y1="588" x2="152" y2="588" stroke="#eb6c36" stroke-width="1.2"/>
<text x="160" y="592" fill="#7a8399" font-size="8" font-family="'Geist Mono',monospace">缓存层（焦点）</text>
<line x1="280" y1="588" x2="312" y2="588" stroke="#2e5aa8" stroke-width="1.2"/>
<text x="320" y="592" fill="#7a8399" font-size="8" font-family="'Geist Mono',monospace">异步层</text>
<line x1="440" y1="588" x2="472" y2="588" stroke="#4f5d75" stroke-width="1.2"/>
<text x="480" y="592" fill="#7a8399" font-size="8" font-family="'Geist Mono',monospace">链路/组件</text>
</svg>